# xmcd
#
# Track frame offsets: 
#        150
#        17476
#        37720
#        54093
#        76995
#        89480
#        105668
#        122819
#        139379
#        150724
#        178894
#        193789
#
# Disc length: 2841 seconds
#
# Revision: 0
# Processed by: cddbd v1.5.1PL0 Copyright (c) Steve Scherf et al.
# Submitted via: ExactAudioCopy v0.95a5
#
DISCID=950b170c
DTITLE=Reinhard Mey - Ikarus
DYEAR=2003
DGENRE=A Cappella
TTITLE0=Zwischen Kiez und Kudamm
TTITLE1=Hab Erdöl in meinem Garten
TTITLE2=Weil ich Meterologe bin
TTITLE3=Die Homestory
TTITLE4=Einen Koffer in jeder Hand
TTITLE5=Es schneit in meinem Garten
TTITLE6=Ikarus
TTITLE7=Es gibt Tage, da wünscht´ ich, ich wär mein Hund
TTITLE8=Du bist die Stille
TTITLE9=Atze Lehmann
TTITLE10=es bleibt eine Narbe zurück
TTITLE11=Mein guter alter Balthasar
EXTD=
EXTT0=
EXTT1=
EXTT2=
EXTT3=
EXTT4=
EXTT5=
EXTT6=
EXTT7=
EXTT8=
EXTT9=
EXTT10=
EXTT11=
PLAYORDER=
